# xmcd
#
# Track frame offsets:
#	187
#	11072
#	30637
#	47167
#	64680
#	81247
#	93597
#	105322
#	119225
#	136207
#
# Disc length: 2140
#
# Revision: 4
# Processed by: cddbd v1.5.1PL0 Copyright (c) Steve Scherf et al.
# Submitted via: audiograbber 1.82.02
# Normalized: r3:DSETVAR1
#
DISCID=84085a0a
DTITLE=Various Artist - The Nashville Collection Volume 1
DYEAR=1900
DGENRE=Country
TTITLE0=Alan Jackson - She's Got The Rhythm
TTITLE1=Brooks and Dunn - Neon Moon
TTITLE2=Blackhawk - Every Once In a While
TTITLE3=Alabama - Cheap Seats
TTITLE4=Diamond Rio - Love a Little Stronger
TTITLE5=Pam Tillis - When You Walk In The Room
TTITLE6=Martina McBride - My Baby Loves Me
TTITLE7=Lorrie Morgan - We Both Walk
TTITLE8=Aaron Tippin - I Got It Honest
TTITLE9=Lonestar - When Cowboys Didn't Dance
EXTD=
EXTT0=
EXTT1=
EXTT2=
EXTT3=
EXTT4=
EXTT5=
EXTT6=
EXTT7=
EXTT8=
EXTT9=Live Version
PLAYORDER=
